<svg width="104" height="35" viewBox="0 0 104 35" fill="none"
    xmlns="http://www.w3.org/2000/svg">
    <path fill-rule="evenodd" clip-rule="evenodd" d="M35 17.5871C35 12.775 32.2438 8.72812 28.209 6.79104C26.2719 2.64687 22.0938 0 17.5871 0C12.775 0 8.72812 2.75625 6.79104 6.79104C2.64687 8.72812 0 12.9062 0 17.5871C0 22.225 2.75625 26.2719 6.79104 28.209C8.72812 32.3531 12.9062 35 17.5871 35C22.225 35 26.2719 32.2438 28.209 28.209C32.3531 26.2719 35 22.0938 35 17.5871ZM21.0697 13.7562C21.505 14.9316 21.7662 16.1505 21.7662 17.4129C21.7662 18.6971 21.505 19.916 21.0697 21.0697C19.8943 21.505 18.6754 21.7662 17.4129 21.7662C16.1287 21.7662 14.9098 21.505 13.7562 21.0697C13.3209 19.8943 13.0597 18.6754 13.0597 17.4129C13.0597 16.1287 13.3209 14.9098 13.7562 13.7562C14.9316 13.3209 16.1505 13.0597 17.4129 13.0597C18.6971 13.0597 19.8943 13.3209 21.0697 13.7562ZM17.5871 2.26368C20.3973 2.26368 23.0906 3.53491 24.9005 5.74627C24.2541 5.56027 23.5862 5.49563 22.9851 5.57214C18.1134 5.49563 13.9981 8.36129 12.1891 12.5373C12.102 12.4982 12.102 12.4982 12.1891 12.5373C11.4341 14.0064 11.0678 15.6224 11.1443 17.4129C11.0678 18.014 11.1324 18.682 11.3184 19.3284C9.1286 17.5185 7.83582 14.8252 7.83582 12.0149C7.83582 6.61604 12.1882 2.26368 17.5871 2.26368ZM2.26368 17.4129C2.26368 14.6027 3.53491 11.9094 5.74627 10.0995C5.56027 10.7459 5.49563 11.4138 5.57214 12.0149C5.49563 16.8866 8.36129 21.0019 12.5373 22.8109C12.4982 22.898 12.4982 22.898 12.5373 22.8109C14.0064 23.5659 15.6224 23.9322 17.4129 23.8557C18.014 23.9322 18.682 23.8676 19.3284 23.6816C17.5185 25.8714 14.8252 27.1642 12.0149 27.1642C6.61604 27.1642 2.26368 22.8118 2.26368 17.4129ZM17.4129 32.3881C14.6027 32.3881 11.9094 31.1168 10.0995 28.9055C10.7459 29.0915 11.4138 29.1561 12.0149 29.0796C16.8866 29.1561 21.0019 26.2905 22.8109 22.1144C22.898 22.1536 22.898 22.1536 22.8109 22.1144C23.5659 20.6453 23.9322 19.0293 23.8557 17.2388C23.9322 16.6377 23.8676 15.9698 23.6816 15.3234C25.8714 17.1333 27.1642 19.8266 27.1642 22.6368C27.1642 28.0357 22.8118 32.3881 17.4129 32.3881ZM22.1144 12.1891C22.1536 12.102 22.1536 12.102 22.1144 12.1891C20.6453 11.4341 19.0293 11.0678 17.2388 11.1443C16.6377 11.0678 15.9698 11.1324 15.3234 11.3184C17.1333 9.1286 19.8266 7.83582 22.6368 7.83582C28.0357 7.83582 32.3881 12.1882 32.3881 17.5871C32.3881 20.3973 31.1168 23.0906 28.9055 24.9005C29.0915 24.2541 29.1561 23.5862 29.0796 22.9851C29.1561 18.1134 26.2905 13.9981 22.1144 12.1891Z" fill="#FD5E60"/>
    <path fill-rule="evenodd" clip-rule="evenodd" d="M63.3999 20.5084C63.3999 15.955 60.2717 12.6779 55.9122 12.6779C51.4861 12.6779 48.3912 15.886 48.3912 20.4739C48.3912 25.0963 51.4861 28.3044 55.9122 28.3044C60.2384 28.2699 63.3999 25.0274 63.3999 20.5084ZM51.5194 20.4394C51.5194 17.6453 53.3497 15.6101 55.9122 15.6101C58.4414 15.6101 60.2717 17.6798 60.2717 20.5084C60.2717 23.3026 58.4414 25.3378 55.9122 25.3378C53.383 25.3378 51.5194 23.2336 51.5194 20.4394Z" fill="#29292B"/>
    <path fill-rule="evenodd" clip-rule="evenodd" d="M79.9727 20.5084C79.9727 15.955 76.8444 12.6779 72.4849 12.6779C68.0589 12.6779 64.9639 15.886 64.9639 20.4739C64.9639 25.0963 68.0589 28.3044 72.4849 28.3044C76.8444 28.2699 79.9727 25.0274 79.9727 20.5084ZM68.0921 20.4394C68.0921 17.6453 69.9225 15.6101 72.4849 15.6101C75.0141 15.6101 76.8444 17.6798 76.8444 20.5084C76.8444 23.3026 75.0141 25.3378 72.4849 25.3378C69.989 25.3378 68.0921 23.2336 68.0921 20.4394Z" fill="#29292B"/>
    <path fill-rule="evenodd" clip-rule="evenodd" d="M100.972 28.0629H103.667C103.867 28.0629 104 27.925 104 27.718V19.439C104 16.8519 103.301 14.9891 101.937 13.9197C100.839 13.0573 99.5407 12.8504 98.6754 12.8504C96.2794 12.8504 94.8817 14.2992 94.083 15.541L93.9831 15.679L93.9166 15.541C93.484 14.6786 92.8849 14.0232 92.0862 13.5403C91.3208 13.0918 90.389 12.8504 89.3574 12.8504C87.8931 12.8504 86.5952 13.4023 85.5636 14.5062L85.3972 14.6786V13.4023C85.3972 13.1953 85.2641 13.0573 85.0644 13.0573H82.4021C82.2024 13.0573 82.0693 13.1953 82.0693 13.4023V27.718C82.0693 27.925 82.2024 28.0629 82.4021 28.0629H85.0644C85.2641 28.0629 85.3972 27.925 85.3972 27.718V19.0941C85.3972 17.4038 86.6951 15.9895 88.3257 15.955C89.9897 15.9205 91.3541 17.3348 91.3541 19.0596V27.718C91.3541 27.925 91.4872 28.0629 91.6869 28.0629H94.3492C94.5489 28.0629 94.682 27.925 94.682 27.718V19.0941C94.682 17.4038 95.9799 15.9895 97.6105 15.955C99.2745 15.9205 100.639 17.3348 100.639 19.0596V27.718C100.639 27.925 100.773 28.0629 100.972 28.0629Z" fill="#29292B"/>
    <path fill-rule="evenodd" clip-rule="evenodd" d="M46.1615 7.08962C46.0284 6.98614 45.8953 6.98614 45.7621 7.02063L43.1997 8.12449C43.0666 8.19348 43 8.29697 43 8.43495V27.6835C43 27.8905 43.1331 28.0285 43.3328 28.0285H45.9951C46.1948 28.0285 46.3279 27.8905 46.3279 27.6835V7.33109C46.2946 7.2621 46.228 7.15861 46.1615 7.08962Z" fill="#29292B"/>
</svg>
